<svg width="156" height="238" viewBox="0 0 156 238" fill="none" xmlns="http://www.w3.org/2000/svg">
<path fill-rule="evenodd" clip-rule="evenodd" d="M77.8262 237.274L155.638 134.075L155.617 134.087L155.617 134.087L77.8262 179.335V237.274ZM140.486 147.512L79.8262 182.794V227.962L140.486 147.512Z" fill="#6F549C"/>
<path fill-rule="evenodd" clip-rule="evenodd" d="M0.0315812 134.098L0.0146713 134.075L77.8224 179.332L77.8262 179.335V237.274L77.8204 237.266L0.0315812 134.098ZM15.1375 147.512L75.8262 228V182.811L75.8004 182.796L15.1375 147.512Z" fill="#87A9F0"/>
<path fill-rule="evenodd" clip-rule="evenodd" d="M0.0184166 122.106L77.8262 1.52588e-05V87.5083L0.0146713 122.112L0.018414 122.106H0.0184166ZM75.8262 86.2089V10.6613L8.65004 116.083L75.8262 86.2089Z" fill="#FBC3F5"/>
<path fill-rule="evenodd" clip-rule="evenodd" d="M2.28882e-05 122.114L0.0184137 122.106L77.8262 87.5103V166.396L0.04674 122.141L2.28882e-05 122.114ZM6.62161 121.359L75.8262 160.735V90.5884L6.62161 121.359Z" fill="#87A9F0"/>
<path fill-rule="evenodd" clip-rule="evenodd" d="M155.634 122.106L77.8262 87.5103V166.396L155.606 122.141L155.652 122.114L155.634 122.106ZM79.8262 160.735L149.031 121.359L79.8262 90.5884V160.735Z" fill="#CFC3FB"/>
<path fill-rule="evenodd" clip-rule="evenodd" d="M77.8262 1.52588e-05V87.5083L155.638 122.112L155.634 122.106L77.8262 1.52588e-05ZM79.8262 86.2089L147.002 116.083L79.8262 10.6613V86.2089Z" fill="#B8FBF6"/>
</svg>
